{
    "asset" : {
        "generator" : "Khronos glTF Blender I/O v1.7.33",
        "version" : "2.0"
    },
    "extensionsUsed" : [
        "KHR_lights_punctual"
    ],
    "extensionsRequired" : [
        "KHR_lights_punctual"
    ],
    "extensions" : {
        "KHR_lights_punctual" : {
            "lights" : [
                {
                    "color" : [
                        1,
                        1,
                        1
                    ],
                    "intensity" : 1000,
                    "type" : "point",
                    "name" : "Light"
                }
            ]
        }
    },
    "scene" : 0,
    "scenes" : [
        {
            "name" : "Scene",
            "nodes" : [
                0,
                1,
                2,
                4,
                6
            ]
        }
    ],
    "nodes" : [
        {
            "mesh" : 0,
            "name" : "Plane",
            "rotation" : [
                0.5452463030815125,
                0.1340261995792389,
                -0.059981342405080795,
                0.8253154754638672
            ],
            "scale" : [
                0.882434606552124,
                1.0154261589050293,
                0.9375921487808228
            ]
        },
        {
            "mesh" : 1,
            "name" : "Torus",
            "scale" : [
                0.9000000357627869,
                1,
                0.9000000357627869
            ]
        },
        {
            "mesh" : 2,
            "name" : "Torus.001",
            "rotation" : [
                -0.11183465272188187,
                0.11183464527130127,
                -0.6982070803642273,
                0.6982070207595825
            ]
        },
        {
            "extensions" : {
                "KHR_lights_punctual" : {
                    "light" : 0
                }
            },
            "name" : "Light_Orientation",
            "rotation" : [
                -0.7071067690849304,
                0,
                0,
                0.7071067690849304
            ]
        },
        {
            "children" : [
                3
            ],
            "name" : "Light",
            "rotation" : [
                0.16907575726509094,
                0.7558803558349609,
                -0.27217137813568115,
                0.570947527885437
            ],
            "translation" : [
                4.076245307922363,
                5.903861999511719,
                -1.0054539442062378
            ]
        },
        {
            "camera" : 0,
            "name" : "Camera_Orientation",
            "rotation" : [
                -0.7071067690849304,
                0,
                0,
                0.7071067690849304
            ]
        },
        {
            "children" : [
                5
            ],
            "name" : "Camera",
            "rotation" : [
                0.5282123684883118,
                0.25455236434936523,
                -0.1942027509212494,
                0.7864350080490112
            ],
            "translation" : [
                7.909562110900879,
                4.721334457397461,
                6.664438724517822
            ]
        }
    ],
    "cameras" : [
        {
            "name" : "Camera",
            "perspective" : {
                "aspectRatio" : 1.7777777777777777,
                "yfov" : 0.7134400459198981,
                "zfar" : 100,
                "znear" : 0.10000000149011612
            },
            "type" : "perspective"
        }
    ],
    "animations" : [
        {
            "channels" : [
                {
                    "sampler" : 0,
                    "target" : {
                        "node" : 0,
                        "path" : "rotation"
                    }
                },
                {
                    "sampler" : 1,
                    "target" : {
                        "node" : 0,
                        "path" : "translation"
                    }
                },
                {
                    "sampler" : 2,
                    "target" : {
                        "node" : 0,
                        "path" : "scale"
                    }
                }
            ],
            "name" : "PlaneAction",
            "samplers" : [
                {
                    "input" : 11,
                    "interpolation" : "LINEAR",
                    "output" : 12
                },
                {
                    "input" : 13,
                    "interpolation" : "LINEAR",
                    "output" : 14
                },
                {
                    "input" : 13,
                    "interpolation" : "LINEAR",
                    "output" : 15
                }
            ]
        },
        {
            "channels" : [
                {
                    "sampler" : 0,
                    "target" : {
                        "node" : 6,
                        "path" : "translation"
                    }
                },
                {
                    "sampler" : 1,
                    "target" : {
                        "node" : 6,
                        "path" : "rotation"
                    }
                },
                {
                    "sampler" : 2,
                    "target" : {
                        "node" : 6,
                        "path" : "scale"
                    }
                }
            ],
            "name" : "CameraAction",
            "samplers" : [
                {
                    "input" : 16,
                    "interpolation" : "STEP",
                    "output" : 17
                },
                {
                    "input" : 16,
                    "interpolation" : "STEP",
                    "output" : 18
                },
                {
                    "input" : 16,
                    "interpolation" : "STEP",
                    "output" : 19
                }
            ]
        }
    ],
    "materials" : [
        {
            "doubleSided" : true,
            "emissiveFactor" : [
                1,
                1,
                1
            ],
            "name" : "white",
            "pbrMetallicRoughness" : {
                "baseColorFactor" : [
                    0.800000011920929,
                    0.800000011920929,
                    0.800000011920929,
                    1
                ],
                "metallicFactor" : 0,
                "roughnessFactor" : 0.5
            }
        }
    ],
    "meshes" : [
        {
            "name" : "Plane",
            "primitives" : [
                {
                    "attributes" : {
                        "POSITION" : 0,
                        "NORMAL" : 1,
                        "TEXCOORD_0" : 2
                    },
                    "indices" : 3,
                    "material" : 0
                }
            ]
        },
        {
            "name" : "Torus",
            "primitives" : [
                {
                    "attributes" : {
                        "POSITION" : 4,
                        "NORMAL" : 5,
                        "TEXCOORD_0" : 6
                    },
                    "indices" : 7,
                    "material" : 0
                }
            ]
        },
        {
            "name" : "Torus.001",
            "primitives" : [
                {
                    "attributes" : {
                        "POSITION" : 8,
                        "NORMAL" : 9,
                        "TEXCOORD_0" : 10
                    },
                    "indices" : 7,
                    "material" : 0
                }
            ]
        }
    ],
    "accessors" : [
        {
            "bufferView" : 0,
            "componentType" : 5126,
            "count" : 627,
            "max" : [
                1.649764060974121,
                0.14772121608257294,
                3.149764060974121
            ],
            "min" : [
                -1.649764060974121,
                -0.14772120118141174,
                -3.149764060974121
            ],
            "type" : "VEC3"
        },
        {
            "bufferView" : 1,
            "componentType" : 5126,
            "count" : 627,
            "type" : "VEC3"
        },
        {
            "bufferView" : 2,
            "componentType" : 5126,
            "count" : 627,
            "type" : "VEC2"
        },
        {
            "bufferView" : 3,
            "componentType" : 5123,
            "count" : 3456,
            "type" : "SCALAR"
        },
        {
            "bufferView" : 4,
            "componentType" : 5126,
            "count" : 10372,
            "max" : [
                4.360000133514404,
                0.09983082115650177,
                4.358726978302002
            ],
            "min" : [
                -4.354908466339111,
                -0.09983082115650177,
                -4.358726978302002
            ],
            "type" : "VEC3"
        },
        {
            "bufferView" : 5,
            "componentType" : 5126,
            "count" : 10372,
            "type" : "VEC3"
        },
        {
            "bufferView" : 6,
            "componentType" : 5126,
            "count" : 10372,
            "type" : "VEC2"
        },
        {
            "bufferView" : 7,
            "componentType" : 5123,
            "count" : 10530,
            "type" : "SCALAR"
        },
        {
            "bufferView" : 8,
            "componentType" : 5126,
            "count" : 10372,
            "max" : [
                4.360000133514404,
                0.09983082115650177,
                4.358726978302002
            ],
            "min" : [
                -4.354908466339111,
                -0.09983082115650177,
                -4.358726978302002
            ],
            "type" : "VEC3"
        },
        {
            "bufferView" : 9,
            "componentType" : 5126,
            "count" : 10372,
            "type" : "VEC3"
        },
        {
            "bufferView" : 10,
            "componentType" : 5126,
            "count" : 10372,
            "type" : "VEC2"
        },
        {
            "bufferView" : 11,
            "componentType" : 5126,
            "count" : 60,
            "max" : [
                2.5
            ],
            "min" : [
                0.041666666666666664
            ],
            "type" : "SCALAR"
        },
        {
            "bufferView" : 12,
            "componentType" : 5126,
            "count" : 60,
            "type" : "VEC4"
        },
        {
            "bufferView" : 13,
            "componentType" : 5126,
            "count" : 2,
            "max" : [
                2.5
            ],
            "min" : [
                0.041666666666666664
            ],
            "type" : "SCALAR"
        },
        {
            "bufferView" : 14,
            "componentType" : 5126,
            "count" : 2,
            "type" : "VEC3"
        },
        {
            "bufferView" : 15,
            "componentType" : 5126,
            "count" : 2,
            "type" : "VEC3"
        },
        {
            "bufferView" : 16,
            "componentType" : 5126,
            "count" : 1,
            "max" : [
                0.7916666666666666
            ],
            "min" : [
                0.7916666666666666
            ],
            "type" : "SCALAR"
        },
        {
            "bufferView" : 17,
            "componentType" : 5126,
            "count" : 1,
            "type" : "VEC3"
        },
        {
            "bufferView" : 18,
            "componentType" : 5126,
            "count" : 1,
            "type" : "VEC4"
        },
        {
            "bufferView" : 19,
            "componentType" : 5126,
            "count" : 1,
            "type" : "VEC3"
        }
    ],
    "bufferViews" : [
        {
            "buffer" : 0,
            "byteLength" : 7524,
            "byteOffset" : 0
        },
        {
            "buffer" : 0,
            "byteLength" : 7524,
            "byteOffset" : 7524
        },
        {
            "buffer" : 0,
            "byteLength" : 5016,
            "byteOffset" : 15048
        },
        {
            "buffer" : 0,
            "byteLength" : 6912,
            "byteOffset" : 20064
        },
        {
            "buffer" : 0,
            "byteLength" : 124464,
            "byteOffset" : 26976
        },
        {
            "buffer" : 0,
            "byteLength" : 124464,
            "byteOffset" : 151440
        },
        {
            "buffer" : 0,
            "byteLength" : 82976,
            "byteOffset" : 275904
        },
        {
            "buffer" : 0,
            "byteLength" : 21060,
            "byteOffset" : 358880
        },
        {
            "buffer" : 0,
            "byteLength" : 124464,
            "byteOffset" : 379940
        },
        {
            "buffer" : 0,
            "byteLength" : 124464,
            "byteOffset" : 504404
        },
        {
            "buffer" : 0,
            "byteLength" : 82976,
            "byteOffset" : 628868
        },
        {
            "buffer" : 0,
            "byteLength" : 240,
            "byteOffset" : 711844
        },
        {
            "buffer" : 0,
            "byteLength" : 960,
            "byteOffset" : 712084
        },
        {
            "buffer" : 0,
            "byteLength" : 8,
            "byteOffset" : 713044
        },
        {
            "buffer" : 0,
            "byteLength" : 24,
            "byteOffset" : 713052
        },
        {
            "buffer" : 0,
            "byteLength" : 24,
            "byteOffset" : 713076
        },
        {
            "buffer" : 0,
            "byteLength" : 4,
            "byteOffset" : 713100
        },
        {
            "buffer" : 0,
            "byteLength" : 12,
            "byteOffset" : 713104
        },
        {
            "buffer" : 0,
            "byteLength" : 16,
            "byteOffset" : 713116
        },
        {
            "buffer" : 0,
            "byteLength" : 12,
            "byteOffset" : 713132
        }
    ],
    "buffers" : [
        {
            "byteLength" : 713144,
            "uri" : "data:application/octet-stream;base64,"
        }
    ]
}
